<mxfile host="Electron" agent="Mozilla/5.0 (Windows NT 10.0; Win64; x64) AppleWebKit/537.36 (KHTML, like Gecko) draw.io/26.0.4 Chrome/128.0.6613.186 Electron/32.2.5 Safari/537.36" version="26.0.4">
  <diagram name="Page-1" id="zdrOheh8sVVhx6P42z3e">
    <mxGraphModel dx="673" dy="861" grid="1" gridSize="10" guides="1" tooltips="1" connect="1" arrows="1" fold="1" page="0" pageScale="1" pageWidth="850" pageHeight="1100" math="0" shadow="0">
      <root>
        <mxCell id="0" />
        <mxCell id="1" parent="0" />
        <mxCell id="74kFBNESh-YmZsscH-YC-2" value="User" style="shape=umlActor;verticalLabelPosition=bottom;verticalAlign=top;html=1;outlineConnect=0;" vertex="1" parent="1">
          <mxGeometry x="50" y="-75" width="65" height="130" as="geometry" />
        </mxCell>
        <mxCell id="74kFBNESh-YmZsscH-YC-5" value="Choose Drink Type" style="ellipse;whiteSpace=wrap;html=1;" vertex="1" parent="1">
          <mxGeometry x="220" y="-130" width="110" height="70" as="geometry" />
        </mxCell>
        <mxCell id="74kFBNESh-YmZsscH-YC-7" value="Choose Drink Type" style="ellipse;whiteSpace=wrap;html=1;" vertex="1" parent="1">
          <mxGeometry x="220" width="110" height="70" as="geometry" />
        </mxCell>
        <mxCell id="74kFBNESh-YmZsscH-YC-8" value="" style="endArrow=classic;html=1;rounded=0;entryX=-0.002;entryY=0.577;entryDx=0;entryDy=0;entryPerimeter=0;" edge="1" parent="1" target="74kFBNESh-YmZsscH-YC-5">
          <mxGeometry width="50" height="50" relative="1" as="geometry">
            <mxPoint x="120" y="-30" as="sourcePoint" />
            <mxPoint x="170" y="-80" as="targetPoint" />
          </mxGeometry>
        </mxCell>
        <mxCell id="74kFBNESh-YmZsscH-YC-9" value="" style="endArrow=classic;html=1;rounded=0;entryX=-0.007;entryY=0.432;entryDx=0;entryDy=0;entryPerimeter=0;" edge="1" parent="1" target="74kFBNESh-YmZsscH-YC-7">
          <mxGeometry width="50" height="50" relative="1" as="geometry">
            <mxPoint x="120" y="-30" as="sourcePoint" />
            <mxPoint x="190" y="-60" as="targetPoint" />
          </mxGeometry>
        </mxCell>
      </root>
    </mxGraphModel>
  </diagram>
</mxfile>
